Coordinates
version=1
nRows=12
nColumns=42
inDegrees=yes

Units are S.I. units (second, meters, Newtons, ...)
If the header above contains a line with 'inDegrees', this indicates whether rotational values are in degrees (yes) or radians (no).

endheader
time	pelvis_tilt	pelvis_list	pelvis_rotation	pelvis_tx	pelvis_ty	pelvis_tz	hip_flexion_r	hip_adduction_r	hip_rotation_r	knee_angle_r	knee_adduction_r	knee_angle_r_beta	ankle_angle_r	subtalar_angle_r	mtp_angle_r	hip_flexion_l	hip_adduction_l	hip_rotation_l	knee_angle_l	knee_adduction_l	knee_angle_l_beta	ankle_angle_l	subtalar_angle_l	mtp_angle_l	lumbar_extension	lumbar_bending	lumbar_rotation	arm_flex_r	arm_add_r	arm_rot_r	elbow_flex_r	pro_sup_r	wrist_flex_r	wrist_dev_r	arm_flex_l	arm_add_l	arm_rot_l	elbow_flex_l	pro_sup_l	wrist_flex_l	wrist_dev_l
      1.77000000	     20.46070225	     -1.00476113	      1.66075324	     -0.30736472	      0.90248141	      0.15508731	      8.26093091	     -1.22992093	    -39.63264400	     39.57079383	    -14.06069989	      0.69064064	     24.43721861	     33.43287596	     -7.54600299	    -29.62706311	     -0.57045313	    -14.53271728	     44.47950885	    -12.97170117	      0.77631388	     12.10485997	     27.30687267	     -7.54600299	    -45.70105328	      6.34917080	     -3.30433765	      3.76791270	    -15.67867203	      2.34585021	     42.09326971	     90.00000001	      0.00000000	      0.00000000	     18.78004841	    -13.65901847	     -0.34335804	     56.15679649	     90.00000001	      0.00000000	      0.00000000
      1.78000000	     21.45493004	     -1.64390474	      2.04284633	     -0.29379237	      0.90701788	      0.15649080	      5.25975984	     -0.07867183	    -39.65389972	     38.06296183	    -13.33209719	      0.66432401	     25.29396094	     33.79465132	     -7.54499461	    -29.48626209	     -1.68101775	    -14.38563832	     46.52639043	    -13.21728216	      0.81203870	     11.72304316	     26.54191555	     -7.54499461	    -46.73849601	      7.00793376	     -2.93591912	      3.93265096	    -15.82547964	      2.58526134	     42.51097553	     90.00000001	      0.00000000	      0.00000000	     18.19021075	    -13.52954235	     -0.16376180	     55.85300446	     90.00000001	      0.00000000	      0.00000000
      1.79000000	     22.40433424	     -2.05812174	      2.31061804	     -0.28053345	      0.91142387	      0.15765933	      2.38653136	      0.80380966	    -39.67818476	     36.55925196	    -12.71048692	      0.63807932	     25.91286231	     34.13914929	     -7.54392888	    -29.19676835	     -2.42670133	    -14.33011028	     48.34512760	    -13.51653886	      0.84378165	     11.81723193	     25.91202578	     -7.54392888	    -47.75549986	      7.43417102	     -2.63477990	      4.17342373	    -15.97475001	      2.78330563	     43.00844272	     90.00000001	      0.00000000	      0.00000000	     17.62851514	    -13.39586382	      0.06236277	     55.49099240	     90.00000001	      0.00000000	      0.00000000
      1.80000000	     23.26170439	     -2.30289287	      2.68737210	     -0.26756264	      0.91559374	      0.15879349	     -0.38013140	      1.56711705	    -39.69773876	     34.98461791	    -12.10524097	      0.61059677	     26.47861543	     34.51660562	     -7.54269105	    -28.59505941	     -3.08516052	    -14.34903162	     50.08974224	    -13.90152432	      0.87423092	     12.20334267	     25.30812650	     -7.54269105	    -48.68174764	      7.73136622	     -2.42881611	      4.33120799	    -16.06839006	      2.97268924	     43.55835973	     90.00000001	      0.00000000	      0.00000000	     17.12966211	    -13.30950274	      0.31665690	     55.07685201	     90.00000001	      0.00000000	      0.00000000
      1.81000000	     23.79167672	     -2.11728499	      3.03121474	     -0.25507147	      0.91913290	      0.15944766	     -2.61603666	      1.65454463	    -39.71175299	     33.87136270	    -11.41157625	      0.59116680	     27.03437346	     34.73569502	     -7.54192423	    -27.38335373	     -3.13613099	    -14.51668120	     51.74652777	    -14.66963565	      0.90314729	     12.77552029	     24.76979201	     -7.54192423	    -49.29946803	      7.68839913	     -2.52092922	      4.54806380	    -16.07765434	      3.05663773	     44.05023441	     90.00000001	      0.00000000	      0.00000000	     16.67461975	    -13.22227550	      0.48754087	     54.56078533	     90.00000001	      0.00000000	      0.00000000
      1.82000000	     24.25439934	     -2.02608546	      3.43138015	     -0.24275063	      0.92237597	      0.16038223	     -4.74612423	      2.03850681	    -39.72041679	     32.56924133	    -10.91660676	      0.56844050	     27.66732794	     35.01935085	     -7.54092180	    -25.97939802	     -3.42081547	    -14.63422451	     53.33854456	    -15.14145850	      0.93093322	     13.61995847	     24.07876660	     -7.54092180	    -49.86105622	      7.70733014	     -2.48991680	      4.69775468	    -16.11343824	      3.19358806	     44.64671405	     90.00000001	      0.00000000	      0.00000000	     16.27446578	    -13.16527570	      0.73134963	     53.99893443	     90.00000001	      0.00000000	      0.00000000
      1.83000000	     24.58809914	     -1.72662773	      3.82607876	     -0.23064202	      0.92528829	      0.16114181	     -6.65355397	      2.14995285	    -39.72436111	     31.42922495	    -10.43115248	      0.54854346	     28.11982703	     35.14042112	     -7.53973015	    -24.36060606	     -3.37425901	    -14.68433649	     54.65254207	    -15.65967805	      0.95386680	     14.50309065	     23.39160591	     -7.53973015	    -50.30571036	      7.56345177	     -2.62523510	      4.87189997	    -16.09752593	      3.32436515	     45.26693517	     90.00000001	      0.00000000	      0.00000000	     15.86975652	    -13.15031650	      0.94300230	     53.40827795	     90.00000001	      0.00000000	      0.00000000
      1.84000000	     24.84590064	     -1.32143373	      4.19448702	     -0.21862113	      0.92785971	      0.16178629	     -8.41654853	      2.07662524	    -39.72717691	     30.48332161	     -9.90087945	      0.53203433	     28.64051779	     35.20799407	     -7.53852614	    -22.64100525	     -3.13171438	    -14.71875039	     55.67639111	    -16.12337696	      0.97173634	     15.44087554	     22.65209719	     -7.53852614	    -50.67212430	      7.32723005	     -2.79837012	      5.03164246	    -16.10319583	      3.45137238	     45.88881879	     90.00000001	      0.00000000	      0.00000000	     15.45868110	    -13.12836099	      1.10585079	     52.80606614	     90.00000001	      0.00000000	      0.00000000
      1.85000000	     25.06646589	     -0.88491308	      4.51036467	     -0.20660874	      0.93012356	      0.16244478	    -10.08165386	      1.94520761	    -39.72492010	     29.66287903	     -9.39684130	      0.51771490	     29.22740525	     35.23645530	     -7.53759051	    -20.90782889	     -2.80643428	    -14.78034181	     56.39167048	    -16.45135870	      0.98422032	     16.46777030	     21.90363791	     -7.53759051	    -50.99496219	      7.03803740	     -2.94989573	      5.18068341	    -16.13107114	      3.58555044	     46.53881779	     90.00000001	      0.00000000	      0.00000000	     15.02476024	    -13.09796620	      1.22273409	     52.18580895	     90.00000001	      0.00000000	      0.00000000
      1.86000000	     25.15669380	     -0.38007116	      4.69403571	     -0.19475130	      0.93197233	      0.16331103	    -11.47912913	      1.69581741	    -39.71866065	     29.01168771	     -9.01336202	      0.50634947	     29.51621070	     35.00708110	     -7.53716255	    -19.04339736	     -2.34035301	    -14.96015765	     56.83268004	    -16.66460443	      0.99191739	     17.19357934	     21.43276738	     -7.53716255	    -51.22080170	      6.58593379	     -3.09411189	      5.40338806	    -16.10777907	      3.65496416	     47.08381018	     90.00000001	      0.00000000	      0.00000000	     14.53552365	    -13.10760292	      1.26318474	     51.70021990	     90.00000001	      0.00000000	      0.00000000
      1.87000000	     25.46890903	     -0.08502596	      5.03656830	     -0.18244603	      0.93378144	      0.16389037	    -13.30085430	      1.78825467	    -39.71480406	     28.06995226	     -8.50225771	      0.48991309	     30.35583550	     35.35025549	     -7.53622325	    -17.56851971	     -2.10203163	    -14.78455771	     56.87664632	    -16.63243482	      0.99268475	     18.55916333	     20.42264591	     -7.53622325	    -51.57454678	      6.45857926	     -3.09759483	      5.38099861	    -16.32764868	      3.92834934	     48.03482420	     90.00000001	      0.00000000	      0.00000000	     14.04668877	    -13.06237146	      1.39037560	     51.00826062	     90.00000001	      0.00000000	      0.00000000
      1.88000000	     25.69361053	      0.22937388	      5.22827092	     -0.17029542	      0.93521660	      0.16475152	    -14.91970139	      1.80585421	    -39.70487567	     27.25410276	     -8.07045902	      0.47567383	     30.83702704	     35.46624443	     -7.53529315	    -16.03821668	     -1.80553803	    -14.76182415	     56.65144115	    -16.48188869	      0.98875417	     19.56880230	     19.63934124	     -7.53529315	    -51.87274280	      6.19567301	     -3.05019925	      5.47021191	    -16.47033212	      4.14531469	     48.85115904	     90.00000001	      0.00000000	      0.00000000	     13.49106449	    -13.02803105	      1.47488598	     50.47039292	     90.00000001	      0.00000000	      0.00000000
